<svg width="146" height="40" viewBox="0 0 146 40" fill="none" xmlns="http://www.w3.org/2000/svg">
<path fill-rule="evenodd" clip-rule="evenodd" d="M117.181 8.46155C117.499 8.46155 117.757 8.71985 117.757 9.03847V26.3462C117.757 26.6648 117.499 26.9231 117.181 26.9231H114.501C114.183 26.9231 113.925 26.6648 113.925 26.3462V9.03847C113.925 8.71985 114.183 8.46155 114.501 8.46155H117.181ZM53.6222 13.3076C53.9402 13.3076 54.1979 13.5659 54.1979 13.8845V15.2488C54.6558 14.6099 55.2737 14.1267 56.0518 13.799C56.8289 13.472 57.7254 13.3076 58.7411 13.3076C59.328 13.3076 59.9186 13.4301 60.5132 13.6753C60.8072 13.7966 60.9475 14.1337 60.8265 14.4283C60.8068 14.4762 60.7808 14.5213 60.7491 14.5622L59.1303 16.6554C59.0055 16.8168 58.8047 16.9001 58.6025 16.8743L58.1208 16.8165L57.9482 16.8001L57.8815 16.7969C56.7842 16.7969 55.9246 17.104 55.3027 17.7184C54.6808 18.3327 54.3696 19.2541 54.369 20.4828V26.3462C54.369 26.6648 54.1112 26.9231 53.7932 26.9231H51.1142C50.7962 26.9231 50.5385 26.6648 50.5385 26.3462V13.8845C50.5385 13.5659 50.7962 13.3076 51.1142 13.3076H53.6222ZM137.978 13.3076C138.296 13.3076 138.554 13.5659 138.554 13.8845V15.2488C139.012 14.6099 139.63 14.1267 140.408 13.799C141.185 13.472 142.082 13.3076 143.097 13.3076C143.684 13.3076 144.275 13.4301 144.869 13.6753C145.163 13.7966 145.304 14.1337 145.183 14.4283C145.163 14.4762 145.137 14.5213 145.105 14.5622L143.486 16.6554C143.362 16.8168 143.161 16.9001 142.959 16.8743L142.477 16.8165L142.304 16.8001L142.238 16.7969C141.14 16.7969 140.281 17.104 139.659 17.7184C139.037 18.3327 138.726 19.2541 138.725 20.4828V26.3462C138.725 26.6648 138.467 26.9231 138.149 26.9231H135.47C135.152 26.9231 134.895 26.6648 134.895 26.3462V13.8845C134.895 13.5659 135.152 13.3076 135.47 13.3076H137.978ZM67.3727 13.3094C68.7644 13.3088 70.0088 13.5996 71.1058 14.1817C72.2029 14.7636 73.0626 15.5704 73.6851 16.6021C74.3076 17.6339 74.6186 18.8052 74.618 20.116C74.618 21.4272 74.307 22.5985 73.6851 23.6299C73.0632 24.6613 72.2035 25.4683 71.1058 26.0508C70.0088 26.6323 68.7644 26.9231 67.3727 26.9231C65.9809 26.9231 64.7324 26.6317 63.6272 26.0489C62.522 25.4674 61.6578 24.6604 61.0347 23.6281C60.4116 22.5957 60.1005 21.4244 60.1014 20.1142C60.1014 18.8039 60.4125 17.6327 61.0347 16.6003C61.6569 15.5679 62.5211 14.7617 63.6272 14.1817C64.7324 13.6008 65.9809 13.31 67.3727 13.3094ZM106.612 13.3076C108.264 13.3076 109.576 13.7949 110.551 14.7696C111.525 15.745 112.012 17.207 112.012 19.1559V26.3462C112.012 26.6648 111.754 26.9231 111.436 26.9231H108.756C108.438 26.9231 108.181 26.6648 108.181 26.3462V19.7456C108.181 18.6978 107.964 17.9155 107.53 17.3989C107.096 16.8823 106.478 16.6244 105.675 16.6253C104.775 16.6253 104.062 16.9163 103.538 17.4981C103.013 18.08 102.751 18.9446 102.752 20.0919V26.3462C102.752 26.6648 102.494 26.9231 102.176 26.9231H99.4971C99.1791 26.9231 98.9213 26.6648 98.9213 26.3462V19.7456C98.9213 17.6657 98.0863 16.6255 96.4162 16.6249C95.532 16.6249 94.8279 16.9158 94.304 17.4977C93.78 18.0795 93.5181 18.9441 93.5181 20.0914V26.3462C93.5181 26.6648 93.2603 26.9231 92.9423 26.9231H90.2642C89.9462 26.9231 89.6885 26.6648 89.6885 26.3462V14.0815C89.6885 13.7629 89.9462 13.5046 90.2642 13.5046H92.7722C93.0902 13.5046 93.348 13.7629 93.348 14.0815V15.0276C93.8431 14.4681 94.4609 14.0308 95.1531 13.7499C95.8654 13.4556 96.6472 13.3082 97.4987 13.3076C98.4319 13.3076 99.2752 13.4919 100.028 13.8604C100.771 14.2193 101.401 14.7762 101.848 15.47C102.392 14.7792 103.096 14.231 103.898 13.8727C104.725 13.4966 105.63 13.3082 106.612 13.3076ZM126.283 13.3094C127.576 13.3094 128.747 13.5879 129.795 14.1449C130.83 14.6904 131.687 15.522 132.263 16.5407C132.823 17.5162 133.121 18.639 133.156 19.9092L133.159 20.1778L133.126 20.6607C133.104 20.9621 132.853 21.1954 132.552 21.1954H123.09C123.27 22.0145 123.696 22.6616 124.367 23.1366C125.039 23.6117 125.874 23.8492 126.872 23.8492C127.56 23.8492 128.17 23.7468 128.702 23.5421C128.987 23.4291 129.347 23.2113 129.78 22.8886C130.016 22.7127 130.347 22.7436 130.546 22.9602L131.857 24.3821C132.069 24.6121 132.059 24.9694 131.835 25.1874L131.703 25.3109C130.491 26.3848 128.849 26.9217 126.774 26.9217C125.284 26.9217 123.965 26.6311 122.82 26.0498C121.674 25.4686 120.79 24.6616 120.167 23.629C119.545 22.5975 119.234 21.4262 119.234 20.1151C119.234 18.8215 119.541 17.6536 120.155 16.6112C120.758 15.5834 121.634 14.7425 122.685 14.1817C123.757 13.6008 124.956 13.31 126.283 13.3094ZM81.5094 13.308C83.554 13.3077 85.1246 13.7952 86.2218 14.7696C87.3201 15.745 87.8692 17.2152 87.8692 19.1804V26.3439C87.8692 26.6625 87.6114 26.9208 87.2934 26.9208H84.8591C84.5411 26.9208 84.2834 26.6625 84.2834 26.3439V25.0779C83.5629 26.3065 82.2203 26.9208 80.2555 26.9208C79.2403 26.9208 78.361 26.749 77.6175 26.4052C76.874 26.0615 76.304 25.5863 75.9074 24.9796C75.5132 24.3728 75.3161 23.6848 75.3161 22.9155C75.3161 21.6868 75.7787 20.7203 76.7038 20.0159C77.6289 19.3115 79.0578 18.9594 80.9905 18.9597H84.0378C84.0378 18.1243 83.784 17.4813 83.2764 17.0308C82.7688 16.5803 82.0074 16.355 80.9923 16.355C80.2873 16.3552 79.5868 16.4671 78.9169 16.6868C78.5808 16.7962 78.1763 16.989 77.7035 17.2652C77.4288 17.4257 77.0763 17.3327 76.9161 17.0574L76.047 15.3667C75.9079 15.0957 76.0031 14.763 76.2644 14.6071C76.8705 14.2454 77.5832 13.9516 78.4025 13.7258C79.4146 13.4468 80.4597 13.3063 81.5094 13.308ZM83.4968 21.1954H81.4098C79.838 21.1954 79.052 21.7111 79.052 22.7425C79.052 23.234 79.2444 23.6231 79.6292 23.9098C80.014 24.1964 80.542 24.3398 81.2133 24.3398C81.8671 24.3404 82.4483 24.1892 82.9571 23.8861C83.4647 23.5827 83.8249 23.1363 84.0378 22.5469V21.7374C84.0378 21.4381 83.7956 21.1954 83.4968 21.1954ZM67.3727 16.4547C66.3903 16.455 65.5798 16.7869 64.9412 17.4503C64.3026 18.1138 63.9833 19.0023 63.9833 20.116C63.9833 21.2297 64.3026 22.1184 64.9412 22.7821C65.5798 23.4456 66.3903 23.7773 67.3727 23.7773C68.3551 23.7773 69.1615 23.4456 69.7919 22.7821C70.4222 22.1187 70.7374 21.23 70.7374 20.116C70.7374 19.002 70.4222 18.1135 69.7919 17.4503C69.1615 16.7863 68.3551 16.4544 67.3727 16.4547ZM126.307 16.2076C125.439 16.2073 124.711 16.4529 124.122 16.9443C123.532 17.4358 123.172 18.1074 123.041 18.9593H129.549C129.418 18.1238 129.058 17.4564 128.469 16.9571C127.88 16.4577 127.16 16.2079 126.307 16.2076Z" fill="#222222"/>
<path fill-rule="evenodd" clip-rule="evenodd" d="M34.7924 9.58982L22.4134 2.43223C21.2521 1.76075 19.8206 1.76075 18.6593 2.43223L6.28032 9.58982C5.12124 10.26 4.40741 11.4973 4.40741 12.8362V27.1608C4.40741 28.4997 5.12124 29.737 6.28032 30.4072L18.6593 37.5648C19.8206 38.2363 21.2521 38.2363 22.4134 37.5648L34.7924 30.4072C35.9514 29.737 36.6653 28.4997 36.6653 27.1608V12.8362C36.6653 11.4973 35.9514 10.26 34.7924 9.58982Z" fill="#F47835"/>
<mask id="mask0_2_40" style="mask-type:alpha" maskUnits="userSpaceOnUse" x="4" y="1" width="33" height="38">
<path fill-rule="evenodd" clip-rule="evenodd" d="M34.7924 9.58982L22.4134 2.43223C21.2521 1.76075 19.8206 1.76075 18.6593 2.43223L6.28032 9.58982C5.12124 10.26 4.40741 11.4973 4.40741 12.8362V27.1608C4.40741 28.4997 5.12124 29.737 6.28032 30.4072L18.6593 37.5648C19.8206 38.2363 21.2521 38.2363 22.4134 37.5648L34.7924 30.4072C35.9514 29.737 36.6653 28.4997 36.6653 27.1608V12.8362C36.6653 11.4973 35.9514 10.26 34.7924 9.58982Z" fill="white"/>
</mask>
<g mask="url(#mask0_2_40)">
<path fill-rule="evenodd" clip-rule="evenodd" d="M12.4721 15.3357L4.40723 19.9986V10.6728L12.4721 15.3357Z" fill="#FF764B"/>
<path fill-rule="evenodd" clip-rule="evenodd" d="M20.5364 1.34708V10.6727L12.4721 6.01001L20.5364 1.34708Z" fill="#FFA488"/>
<path fill-rule="evenodd" clip-rule="evenodd" d="M12.4721 6.01001H12.4715L4.40723 10.6727L12.4721 15.3357L20.5364 10.6727L12.4721 6.01001Z" fill="#FF8560"/>
<path fill-rule="evenodd" clip-rule="evenodd" d="M12.4721 15.3357V24.6616L4.40723 19.9986L12.4721 15.3357Z" fill="#FF6738"/>
<path fill-rule="evenodd" clip-rule="evenodd" d="M28.6006 24.6616L20.5363 29.3245V19.9986L28.6006 24.6616Z" fill="#F85D32"/>
<path fill-rule="evenodd" clip-rule="evenodd" d="M28.6006 24.6616L20.5363 29.3245L28.6006 33.9874H28.6012L36.6655 29.3245L28.6006 24.6616Z" fill="#F1522D"/>
<path fill-rule="evenodd" clip-rule="evenodd" d="M28.6006 33.9874L20.5363 38.6504V29.3245L28.6006 33.9874Z" fill="#E64324"/>
<path fill-rule="evenodd" clip-rule="evenodd" d="M12.4721 24.6616L4.40723 29.3245V19.9986L12.4721 24.6616Z" fill="#F85D32"/>
<path fill-rule="evenodd" clip-rule="evenodd" d="M12.4721 24.6616L4.40723 29.3245L12.4715 33.9874H12.4721L20.5364 29.3245L12.4721 24.6616Z" fill="#F1522D"/>
<path fill-rule="evenodd" clip-rule="evenodd" d="M20.5364 10.6728L12.4721 15.3357V24.6616L20.5364 29.3245V19.9986L28.6006 15.3357L20.5364 10.6728Z" fill="white"/>
<path fill-rule="evenodd" clip-rule="evenodd" d="M20.5364 29.3245V38.6504L12.4721 33.9874L20.5364 29.3245Z" fill="#EA4827"/>
<path fill-rule="evenodd" clip-rule="evenodd" d="M28.6006 6.01001L20.5363 10.6727V1.34708L28.6006 6.01001Z" fill="#FF9473"/>
<path fill-rule="evenodd" clip-rule="evenodd" d="M28.6006 15.3357L20.5363 19.9986L28.6006 24.6616L36.6655 19.9986L28.6006 15.3357Z" fill="#FF6738"/>
<path fill-rule="evenodd" clip-rule="evenodd" d="M28.6012 6.01001H28.6006L20.5363 10.6727L28.6006 15.3357L36.6655 10.6727L28.6012 6.01001Z" fill="#FF8560"/>
<path fill-rule="evenodd" clip-rule="evenodd" d="M36.6655 10.6728V19.9986L28.6006 15.3357L36.6655 10.6728Z" fill="#FF764B"/>
<path fill-rule="evenodd" clip-rule="evenodd" d="M36.6655 19.9986V29.3245L28.6006 24.6616L36.6655 19.9986Z" fill="#F85D32"/>
<path fill-rule="evenodd" clip-rule="evenodd" d="M20.5363 19.9986V10.6728L28.6006 15.3357L20.5363 19.9986Z" fill="#F7F7F7"/>
</g>
</svg>
